<?xml  version="1.0" encoding="UTF-8"?>
<!DOCTYPE svg PUBLIC "-//W3C//DTD SVG 1.0//EN" "http://www.w3.org/TR/2001/REC-SVG-20010904/DTD/svg10.dtd" >
<svg xmlns="http://www.w3.org/2000/svg" >
<metadata>
<version>1.0</version>
<id><![CDATA[Soho W01 Italic]]></id>
<vendor>Monotype Imaging Inc.</vendor>
<credits>
<name>Fonts.com WebFonts</name>
<URL>http://webfonts.fonts.com</URL>
<role>Home of the Web fonts</role>
</credits>
<license>
<URL>http://webfonts.fonts.com/Legal</URL>
</license>
<copyright><![CDATA[Copyright (c) 2007 Monotype Imaging Inc. Soho is designed by Sebastian Lester. All rights reserved.]]></copyright>
<trademark><![CDATA[Soho is a trademark of Monotype Imaging, Inc and may be registered in certain jurisdictions.]]></trademark>
<licensee>
<name></name>
</licensee>
</metadata>
<defs >
<font horiz-adv-x="576" id="8ccaa334-b219-47b5-9762-52f28885c09f">
<font-face font-family="" panose-1="2 4 5 3 3 5 6 9 2 4" ascent="775" descent="-225" units-per-em="1000" alphabetic="0">
</font-face>
<missing-glyph horiz-adv-x="0" />

<glyph unicode="&#xA;" />
<glyph unicode="&#xD;" horiz-adv-x="0" />
<glyph unicode=" " horiz-adv-x="191" />
<glyph unicode="!" horiz-adv-x="251" d="M80 0L103 135H194L171 0H80ZM199 193H121L213 774H310L199 193Z"  />
<glyph unicode="&quot;" horiz-adv-x="338" d="M373 519H306L360 759H451L373 519ZM256 759L178 519H111L165 759H256Z"  />
<glyph unicode="#" horiz-adv-x="741" d="M546 197L490 0H410L465 197H297L242 0H161L217 197H118L132 274H239L292 461H165L178 537H314L374 743H454L395 537H562L623 743H703L644 537H750L737 461H622L569 274H704L690 197H546ZM373 461L320 274H488L541 461H373Z"  />
<glyph unicode="$" horiz-adv-x="620" d="M261 -12Q232 -11 205 -9T155 -3T115 3T90 8L116 156H186L181 68Q207 68 241 68T309 67Q344 67 376 74T434 99T474 145T489 216Q489 248 471 271T407 317L290 374Q232 402 201 443T170 544Q170 595 186 631T233 692T304 731T396 751L414 855H500L482 754Q541 752 586 746T649 735L624 592H554L558 675H438Q406 675 375 670T318 651T278 612T263 547Q263 517 281 495T344 451L462 395Q526 365 556 325T586 226Q586 173 569 133T521 64T445 17T348 -8L328 -120H242L261 -12H261Z"  />
<glyph unicode="%" horiz-adv-x="1067" d="M339 0H249L854 743H944L339 0ZM1046 178Q1029 86 981 38T838 -10Q797 -10 768 1T721 32T695 81T687 142Q687 174 693 209L703 266Q718 354 767 404T912 455Q955 455 984 444T1030 414T1055 367T1063 307Q1063 290 1061 272T1056 235L1046 178ZM977 251Q983 284 983 307Q983 353 963 371T904 389Q854 389 825 358T783 251L773 194Q767 159 767 136Q767 91 786 74T845 56Q894 56 923 86T967 194L977 251ZM493 478Q476 386 428 338T285 290Q244 290 215 301T168 332T142 381T134 442Q134 474 140 509L150 566Q165 654 214 704T359 755Q402 755 431 744T477 714T502 667T510 607Q510 590 508 572T503 535L493 478ZM424 551Q430 584 430 607Q430 653 410 671T351 689Q301 689 272 658T230 551L220 494Q214 459 214 436Q214 391 233 374T292 356Q341 356 370 386T414 494L424 551Z"  />
<glyph unicode="&amp;" horiz-adv-x="736" d="M770 441L758 372L702 366Q696 297 673 232T606 115L690 16L688 0H582L537 53Q492 21 433 4T298 -14Q254 -14 215 -4T147 27T102 81T85 162Q85 202 98 234T136 293T193 340T264 379L259 386Q227 425 206 465T184 555Q184 612 203 650T255 711T335 745T436 755Q470 755 502 753T561 748T608 742T639 735L614 592H543L546 671Q517 674 487 674T426 675Q393 675 366 670T320 652T289 615T278 553Q278 520 295 492T347 423L552 179Q581 218 596 266T617 366L563 372L575 441H770ZM311 64Q366 64 409 77T487 114L312 322Q286 309 263 294T221 261T192 218T181 163Q181 133 191 114T220 84T261 69T311 64Z"  />
<glyph unicode="&apos;" horiz-adv-x="143" d="M178 519H111L165 759H256L178 519Z"  />
<glyph unicode="(" horiz-adv-x="355" d="M195 -207Q178 -177 163 -140T134 -58T114 39T106 152Q106 233 123 311T174 465T254 610T360 743H448Q324 608 259 458T193 147Q193 34 216 -51T277 -207H195Z"  />
<glyph unicode=")" horiz-adv-x="355" d="M255 743Q271 713 287 676T316 593T336 493T344 375Q344 298 326 221T275 70T195 -74T90 -207H2Q126 -72 191 77T257 381Q257 440 251 491T234 586T208 669T173 743H255Z"  />
<glyph unicode="*" horiz-adv-x="532" d="M469 578Q452 573 434 568T395 559Q409 545 421 531T444 502L487 443L424 397L381 456Q370 471 360 487T340 520Q331 503 321 487T300 457L258 397L194 443L237 503Q247 517 259 531T285 560Q266 564 248 569T213 579L143 601L167 676L237 653Q254 648 272 641T307 626Q305 645 304 664T302 700V774H380V700Q380 663 374 624Q392 633 410 640T445 652L515 676L539 601L469 578Z"  />
<glyph unicode="+" horiz-adv-x="702" d="M463 354V139H390V354H175V427H390V642H463V427H676V354H463Z"  />
<glyph unicode="&#x2c;" horiz-adv-x="277" d="M91 -89H9L142 138H247L91 -89Z"  />
<glyph unicode="-" horiz-adv-x="396" d="M118 255L132 330H379L365 255H118Z"  />
<glyph unicode="." horiz-adv-x="252" d="M81 0L105 138H195L171 0H81Z"  />
<glyph unicode="/" horiz-adv-x="411" d="M97 0H10L446 743H532L97 0Z"  />
<glyph unicode="0" horiz-adv-x="637" d="M629 283Q602 128 528 57T325 -14Q211 -14 157 48T103 219Q103 263 112 316L137 459Q151 537 179 593T247 685T337 738T445 755Q558 755 611 697T664 531Q664 507 662 481T654 426L629 283ZM565 442Q574 493 574 531Q574 611 539 643T441 676Q400 676 366 664T304 625T258 553T227 442L202 299Q193 246 193 208Q193 129 228 97T329 65Q374 65 408 77T468 116T511 188T540 299L565 442Z"  />
<glyph unicode="1" horiz-adv-x="558" d="M61 0L74 75L248 81L349 655L166 599L180 679L390 749H457L339 81L510 75L497 0H61Z"  />
<glyph unicode="2" horiz-adv-x="589" d="M64 0L80 94Q91 155 111 199T164 278T246 343T362 406Q403 426 436 444T494 482T531 529T544 590Q544 640 508 658T390 676Q366 676 333 675T271 671L247 592H176L201 732Q205 733 225 736T276 744T344 751T418 755Q534 755 585 718T637 595Q637 550 621 514T574 448T499 392T400 338Q336 306 295 281T229 229T191 171T170 94L168 81H457L480 156H551L524 0H64Z"  />
<glyph unicode="3" horiz-adv-x="596" d="M168 70Q194 68 224 67T287 65Q397 65 443 112T490 253Q490 276 485 293T468 322T435 340T381 346H167L180 423H394Q475 423 511 466T548 579Q548 608 541 626T515 656T468 671T395 676Q366 676 335 675T277 672L252 592H182L207 733Q212 734 232 737T282 745T346 752T411 755Q472 755 515 747T587 720T628 668T641 586Q641 560 636 533T616 479T577 428T514 385Q551 365 566 333T581 253Q581 124 507 55T275 -14Q244 -14 213 -11T155 -4T108 5T77 12L102 155H172L168 70H168Z"  />
<glyph unicode="4" horiz-adv-x="652" d="M524 196L503 78L556 73L544 0H344L356 73L411 78L432 196H81L98 290L517 743H621L538 276H651L637 196H524ZM508 619L186 276H447L508 619Z"  />
<glyph unicode="5" horiz-adv-x="584" d="M148 155L144 71Q173 69 202 67T265 65Q328 65 369 79T435 118T470 181T480 264Q480 294 472 314T445 347T396 365T319 370H130L229 743H631L604 592H533L535 661H292L236 449H336Q400 449 445 439T519 407T561 350T574 264Q574 135 495 61T253 -14Q218 -14 186 -11T126 -4T80 4T52 10L78 155H148Z"  />
<glyph unicode="6" horiz-adv-x="630" d="M227 439Q246 444 269 448T315 456T360 460T397 462Q448 462 489 455T559 428T604 373T620 283Q620 230 604 177T554 82T464 13T330 -14Q284 -14 243 -5T170 29T120 94T101 200Q101 246 111 299L145 492Q157 560 179 609T240 691T334 739T469 755Q502 755 533 753T590 747T637 739T667 733L642 592H572L575 672Q549 674 518 675T457 676Q392 676 352 662T288 621T253 557T233 474L227 439ZM198 276Q194 253 192 234T190 197Q190 157 200 132T229 91T274 71T333 65Q385 65 422 81T483 127T518 196T529 284Q529 318 519 338T490 370T443 384T378 388Q366 388 349 387T310 384T264 379T215 369L198 276Z"  />
<glyph unicode="7" horiz-adv-x="575" d="M209 0H106L563 661H248L226 592H156L183 743H664L646 645L209 0Z"  />
<glyph unicode="8" horiz-adv-x="653" d="M155 508Q155 581 177 629T240 705T334 744T453 755H457Q503 755 545 748T620 721T671 670T691 588Q691 527 664 474T577 386Q605 366 621 336T638 258Q638 199 624 149T576 63T482 7T332 -14H328Q283 -14 241 -8T165 19T112 78T92 181Q92 208 98 236T117 292T151 345T205 390Q182 408 169 438T155 508ZM543 258Q543 306 523 326T454 347H320Q281 346 256 332T214 294T192 241T185 181Q185 142 195 119T225 84T272 69T335 65H339Q390 65 428 74T491 105T530 164T543 258ZM467 425Q501 425 526 438T566 473T589 524T597 586Q597 615 586 633T554 660T507 673T447 676H443Q398 676 362 668T300 640T260 587T246 502Q246 465 265 445T333 425H467Z"  />
<glyph unicode="9" horiz-adv-x="630" d="M518 302Q499 297 476 293T430 285T385 281T348 279Q297 279 256 286T186 313T141 368T125 458Q125 511 141 564T191 659T281 728T415 755Q461 755 502 746T575 712T625 647T644 541Q644 495 634 442L600 249Q588 181 566 131T505 49T411 2T276 -14Q243 -14 212 -12T155 -6T108 2T78 8L103 149H173L170 69Q196 67 227 66T288 65Q352 65 392 79T457 120T492 184T512 267L518 302ZM547 465Q551 488 553 507T555 544Q555 584 545 609T516 650T471 670T412 676Q360 676 323 660T262 614T227 544T216 457Q216 423 226 403T255 371T302 357T367 353Q379 353 396 354T435 357T481 362T530 372L547 465Z"  />
<glyph unicode=":" horiz-adv-x="258" d="M83 0L107 138H198L174 0H83ZM246 412H155L179 550H270L246 412Z"  />
<glyph unicode=";" horiz-adv-x="268" d="M62 -89H-16L116 138H220L62 -89ZM165 412L189 550H280L256 412H165Z"  />
<glyph unicode="&lt;" horiz-adv-x="702" d="M509 139L219 391L509 642H632L341 391L632 139H509Z"  />
<glyph unicode="=" horiz-adv-x="702" d="M202 244V318H649V244H202ZM202 464V539H649V464H202Z"  />
<glyph unicode="&gt;" horiz-adv-x="702" d="M341 139H219L509 391L219 642H341L632 391L341 139Z"  />
<glyph unicode="?" horiz-adv-x="496" d="M141 0L165 138H256L232 0H141ZM188 764Q228 774 273 780T358 787Q401 787 435 780T494 758T531 716T544 653Q544 617 534 587T505 530T459 476T399 421Q359 387 336 364T299 320T280 281T270 235L263 193H176L183 235Q189 267 196 293T217 344T256 396T322 458Q343 475 365 495T405 538T435 588T447 645Q447 683 418 695T336 708Q316 708 298 708T260 706L236 630H165L188 764Z"  />
<glyph unicode="@" horiz-adv-x="833" d="M588 138Q639 149 676 176T736 240T771 324T783 419Q783 510 728 553T555 596Q487 596 432 581T331 531T253 440T196 302Q183 256 172 212T160 117Q160 80 171 50T208 -3T278 -38T387 -51Q417 -51 447 -50T502 -47T545 -44T565 -42L558 -92Q552 -93 534 -95T492 -100T438 -105T379 -107Q302 -107 248 -91T159 -44T110 27T94 118Q94 173 105 220T131 319Q158 412 198 476T291 580T412 638T563 656Q711 656 781 592T852 417Q852 331 826 264T748 150T622 79T450 54Q399 54 365 63T311 90T283 132T275 186Q275 209 278 234T288 286Q301 348 322 387T371 449T433 479T507 487Q551 487 591 482T667 467L588 138ZM567 409Q553 411 534 412T498 413Q477 413 458 409T423 391T394 350T370 278Q364 252 360 231T355 191Q355 159 376 141T458 123Q470 123 479 123T499 124L567 409Z"  />
<glyph unicode="A" horiz-adv-x="743" d="M36 0L48 73L104 78L399 664L341 669L355 743H566L666 78L717 73L705 0H503L515 73L571 77L548 243H282L200 77L251 73L239 0H36ZM503 544Q498 574 497 603T495 666H485Q472 633 460 604T433 544L324 327H535L503 544Z"  />
<glyph unicode="B" horiz-adv-x="651" d="M642 240Q642 166 614 120T539 47T430 10T303 0H50L63 74L118 81L220 661L167 668L181 743H426Q486 743 535 738T619 715T674 661T694 566Q694 506 660 456T564 381Q600 364 621 329T642 240ZM210 81H304Q349 81 393 85T471 106T527 154T548 240Q548 265 541 284T516 317T471 338T402 346H257L210 81ZM270 425H415Q457 425 491 432T549 456T587 499T601 565Q601 599 588 618T551 647T491 659T411 661H312L270 425Z"  />
<glyph unicode="C" horiz-adv-x="599" d="M546 3Q534 1 514 -2T468 -7T415 -12T361 -14Q307 -14 260 -4T177 33T121 105T101 220Q101 269 111 325L133 448Q151 550 186 610T270 703T376 745T497 755Q523 755 550 753T601 749T645 743T676 738L650 592H579L582 670Q561 671 533 672T482 673Q425 673 383 661T309 622T257 548T224 433L202 310Q193 259 193 221Q193 178 204 149T238 102T295 77T376 69Q399 69 427 69T476 71L501 151H572L546 3H546Z"  />
<glyph unicode="D" horiz-adv-x="695" d="M691 294Q678 223 651 169T578 77T467 20T311 0H49L61 73L117 81L219 661L166 669L180 743H428Q513 743 569 726T659 679T707 605T721 508Q721 464 712 415L691 294ZM620 433Q624 454 625 472T627 508Q627 594 576 627T420 661H311L209 81H318Q378 81 424 91T506 128T564 199T599 312L620 433Z"  />
<glyph unicode="E" horiz-adv-x="600" d="M50 0L62 73L117 78L221 664L167 669L181 743H655L628 592H556L558 661H312L271 427H578L563 344H256L210 81H456L478 152H550L524 0H50Z"  />
<glyph unicode="F" horiz-adv-x="590" d="M256 344L209 78L262 73L250 0H50L62 73L117 78L221 664L167 669L181 743H655L628 592H556L558 661H312L271 427H578L563 344H256Z"  />
<glyph unicode="G" horiz-adv-x="633" d="M569 7Q557 5 535 2T484 -5T420 -11T347 -14Q294 -14 249 -1T171 40T120 113T101 223Q101 270 111 323L135 454Q153 552 188 611T270 702T372 744T484 755Q524 755 561 753T628 747T675 740T697 736L672 592H600L603 668Q580 670 547 671T481 673Q434 673 393 665T319 631T262 560T224 437L200 306Q191 258 191 221Q191 176 203 147T239 101T296 77T373 70Q405 70 435 70T489 73L530 306L425 314L438 386H636L569 7H569Z"  />
<glyph unicode="H" horiz-adv-x="764" d="M514 0L526 73L581 78L629 351H257L209 78L262 73L250 0H50L62 73L117 78L221 664L167 669L181 743H381L368 670L313 665L272 434H644L685 665L632 670L645 743H845L831 669L777 664L673 78L726 73L714 0H514Z"  />
<glyph unicode="I" horiz-adv-x="304" d="M52 0L64 73L119 78L223 664L169 669L183 743H383L369 669L315 664L211 78L264 73L252 0H52Z"  />
<glyph unicode="J" horiz-adv-x="299" d="M310 664L182 -60Q175 -101 162 -131T128 -180T76 -209T1 -219Q-17 -219 -39 -217T-72 -211L-60 -142H8Q31 -142 45 -138T67 -124T81 -99T90 -60L218 664L164 669L178 743H378L364 669L310 664Z"  />
<glyph unicode="K" horiz-adv-x="665" d="M513 0L260 364L209 78L262 73L250 0H50L62 73L117 78L221 664L167 669L181 743H381L368 670L313 665L266 402L636 743H753L739 669L680 665L366 377L579 77L634 73L622 0H513Z"  />
<glyph unicode="L" horiz-adv-x="577" d="M49 0L61 73L116 78L220 664L166 669L180 743H380L366 669L312 664L209 81H467L489 153H561L535 0H49Z"  />
<glyph unicode="M" horiz-adv-x="851" d="M602 0L614 73L669 78L741 483Q748 523 754 553T770 621H768Q749 592 732 564T695 507L523 240H410L335 507Q327 536 319 564T302 621H300Q295 583 291 554T280 483L208 78L261 73L249 0H50L62 73L117 78L221 664L167 669L181 743H354L448 408L475 308H477Q492 333 508 359T541 410L756 743H932L918 669L864 664L760 78L813 73L801 0H602Z"  />
<glyph unicode="N" horiz-adv-x="746" d="M758 664L641 0H510L341 533Q333 561 323 593T304 659H302Q293 583 279 504L204 78L257 73L245 0H51L63 73L118 78L222 664L168 669L182 743H368L535 224Q544 197 554 162T573 97H575Q580 142 586 183T598 260L670 665L617 670L630 743H826L812 669L758 664Z"  />
<glyph unicode="O" horiz-adv-x="683" d="M682 303Q625 -14 344 -14Q221 -14 162 51T103 234Q103 279 112 332L130 438Q157 598 243 676T468 755Q530 755 575 738T651 690T695 613T710 512Q710 486 708 461T700 409L682 303ZM609 424Q612 442 615 467T618 512Q618 599 580 636T459 673Q412 673 374 660T305 616T254 539T221 423L203 317Q200 301 198 275T195 229Q195 142 235 105T352 68Q399 68 437 81T506 125T557 202T591 318L609 424Z"  />
<glyph unicode="P" horiz-adv-x="637" d="M685 555Q685 480 659 429T586 347T475 303T334 289H246L209 78L262 73L250 0H50L62 73L117 78L221 664L167 669L181 743H398Q458 743 510 737T601 710T662 652T685 555ZM590 555Q590 589 578 610T541 642T482 657T400 661H312L261 370H349Q398 370 441 376T518 402T570 458T590 555Z"  />
<glyph unicode="Q" horiz-adv-x="683" d="M682 303Q629 9 385 -12L375 -66Q374 -72 374 -76T373 -86Q373 -103 385 -109T432 -115H517L506 -178Q501 -179 489 -181T462 -184T429 -187T394 -188Q369 -188 349 -185T313 -172T290 -145T282 -99Q282 -89 283 -78T286 -52L294 -10Q197 3 150 66T103 234Q103 279 112 332L130 438Q157 598 243 676T468 755Q530 755 575 738T651 690T695 613T710 512Q710 486 708 461T700 409L682 303ZM609 424Q612 442 615 467T618 512Q618 599 580 636T459 673Q412 673 374 660T305 616T254 539T221 423L203 317Q200 301 198 275T195 229Q195 142 235 105T352 68Q399 68 437 81T506 125T557 202T591 318L609 424Z"  />
<glyph unicode="R" horiz-adv-x="686" d="M260 73L248 0H48L60 73L115 78L219 664L165 669L179 743H408Q459 743 508 737T597 710T660 652T684 550Q684 456 640 398T502 309L600 77L655 73L643 0H527L407 290Q391 289 369 289T330 289H244L207 78L260 73ZM345 370Q399 370 444 377T521 403T571 457T589 544Q589 581 577 604T539 640T478 657T393 661H310L259 370H345Z"  />
<glyph unicode="S" horiz-adv-x="584" d="M169 155L164 69Q181 68 194 68T219 67T247 66T284 66Q326 66 360 74T420 99T458 144T472 212Q472 247 454 271T390 317L272 374Q216 400 184 443T151 553Q151 610 173 648T232 710T318 744T421 755Q458 755 492 753T553 748T601 742T632 735L607 592H536L538 671Q509 673 478 674T420 675Q384 675 352 670T297 652T260 615T246 554Q246 519 264 496T327 451L445 395Q475 381 498 365T537 328T561 279T570 213Q570 157 549 115T489 44T397 1T280 -14Q247 -14 214 -12T153 -6T104 0T72 7L98 155H169Z"  />
<glyph unicode="T" horiz-adv-x="633" d="M625 592L627 661H478L375 76L428 71L416 0H216L228 71L283 76L386 661H238L216 592H146L173 743H722L695 592H625Z"  />
<glyph unicode="U" horiz-adv-x="747" d="M760 665L694 295Q680 214 656 156T595 60T506 4T383 -14Q261 -14 205 45T149 210Q149 240 152 268T161 328L221 665L168 670L181 743H381L368 670L313 665L252 319Q240 256 240 210Q240 135 275 102T393 69Q447 69 483 83T542 127T581 204T608 319L669 665L616 670L629 743H828L815 670L760 665Z"  />
<glyph unicode="V" horiz-adv-x="744" d="M767 664L431 0H308L206 664L155 669L169 743H365L352 670L299 666L367 198Q372 166 374 133T379 70H381Q393 99 406 132T436 198L670 666L620 670L633 743H837L823 669L767 664Z"  />
<glyph unicode="W" horiz-adv-x="959" d="M986 664L749 0H602L582 460L577 555H574L537 460L356 0H207L204 664L155 669L169 743H364L351 670L298 665L293 221L291 73H296Q311 110 325 146T354 220L516 633H660L677 217Q678 181 679 145T682 73H687Q699 111 710 146T736 221L889 665L837 670L850 743H1052L1038 669L986 664Z"  />
<glyph unicode="X" horiz-adv-x="698" d="M397 302L207 71L259 68L248 0H37L49 73L106 78L359 378L218 664L162 669L176 743H377L365 675L317 671L430 444L614 670L563 675L575 743H786L772 669L715 664L466 370L612 78L668 73L656 0H453L464 68L511 72L397 302ZM408 316L407 315H408V316Z"  />
<glyph unicode="Y" horiz-adv-x="642" d="M688 665L417 294L380 81L433 76L420 0H221L234 76L289 81L326 294L187 665L142 669L156 743H350L338 675L282 670L346 498Q356 472 366 441T383 380H389Q404 409 427 440T469 498L594 670L536 675L548 743H748L734 669L688 665Z"  />
<glyph unicode="Z" horiz-adv-x="623" d="M54 0L71 102L566 661H266L244 592H174L201 743H686L668 642L173 81H501L525 156H596L569 0H54Z"  />
<glyph unicode="[" horiz-adv-x="404" d="M77 -208L245 743H477L464 666H320L179 -133H322L309 -208H77Z"  />
<glyph unicode="\" horiz-adv-x="442" d="M329 0L156 743H242L416 0H329Z"  />
<glyph unicode="]" horiz-adv-x="404" d="M20 -208L33 -133H176L317 667H174L188 743H420L252 -208H20Z"  />
<glyph unicode="^" horiz-adv-x="702" d="M566 415L473 701L281 415H182L405 746H557L664 415H566Z"  />
<glyph unicode="_" horiz-adv-x="574" d="M-24 -106L-14 -47H570L560 -106H-24Z"  />
<glyph unicode="`" horiz-adv-x="457" d="M315 616L192 770H298L402 616H315Z"  />
<glyph unicode="a" horiz-adv-x="574" d="M391 0L397 37Q369 20 325 3T220 -14Q76 -14 76 112Q76 130 79 153L82 173Q90 228 113 259T172 307T256 327T362 332H445L452 372Q458 403 458 424Q458 462 433 475T343 488Q299 488 251 485L232 427H162L182 540Q188 542 205 546T247 554T301 561T363 564Q418 564 454 555T511 530T540 490T549 437Q549 420 547 401T540 360L490 78L543 73L531 0H391ZM433 264H350Q306 264 275 261T223 246T189 215T170 162L165 135Q164 129 164 124T163 110Q163 79 183 68T242 56Q267 56 291 61T338 72T377 86T404 100L433 264Z"  />
<glyph unicode="b" horiz-adv-x="579" d="M561 225Q549 159 527 114T469 40T386 -1T275 -14Q249 -14 228 -13T184 -11T136 -7T76 0L198 697L145 702L158 775H301L258 529Q299 549 339 557T413 566Q501 566 543 523T586 397Q586 379 584 360T578 319L561 225ZM490 333Q496 366 496 392Q496 443 471 465T388 487Q377 487 360 486T324 482T284 473T246 458L178 71Q197 69 225 68T291 66Q334 66 364 74T416 103T451 157T474 239L490 333Z"  />
<glyph unicode="c" horiz-adv-x="504" d="M451 5Q435 0 389 -7T283 -14Q185 -14 140 37T95 176Q95 193 96 212T102 251L116 334Q137 453 204 508T385 564Q413 564 439 562T486 557T524 551T547 545L526 427H456V484Q449 485 439 485T418 486T398 487T383 487Q347 487 318 480T266 453T228 401T203 317L189 234Q183 198 183 172Q183 137 192 116T218 83T258 67T309 63Q332 63 372 65T463 73L451 5H451Z"  />
<glyph unicode="d" horiz-adv-x="600" d="M416 0L420 28Q390 11 349 -1T264 -14Q179 -14 135 32T91 166Q91 183 92 201T98 239L115 334Q128 408 153 453T214 523T291 556T382 564Q415 564 446 561T509 550L535 695L474 700L487 774H639L516 78L569 73L557 0H416ZM496 475Q464 481 432 484T376 488Q343 488 315 482T266 458T228 405T202 316L185 221Q182 206 181 192T180 166Q180 112 206 88T289 63Q327 63 361 72T430 97L496 475Z"  />
<glyph unicode="e" horiz-adv-x="570" d="M187 242L185 231Q182 214 180 199T178 169Q178 145 184 126T207 93T251 72T321 64Q368 64 421 68T517 80L504 8Q473 0 423 -7T306 -14Q190 -14 140 35T90 173Q90 196 93 220T101 272L108 314Q120 379 144 426T203 504T282 549T377 564Q474 564 528 520T582 377Q582 344 578 312T565 242H187ZM486 316Q489 333 491 348T493 377Q493 398 488 417T470 452T433 476T373 486Q327 486 297 471T247 431T217 379T203 326L201 316H486Z"  />
<glyph unicode="f" horiz-adv-x="422" d="M311 475L241 78L294 73L282 0H85L97 73L152 78L222 475L119 483L130 550H235L249 625Q255 658 263 687T290 739T338 774T418 787Q450 787 477 783T523 773L512 712Q493 713 469 714T418 716Q395 716 381 710T359 692T345 661T336 616L324 550H480L467 475H311Z"  />
<glyph unicode="g" horiz-adv-x="589" d="M625 500L565 492Q571 484 578 465T585 415Q585 358 566 317T512 248T432 207T331 193Q296 193 263 197T204 214Q189 205 176 193T162 162Q162 149 171 139T202 128H310Q358 128 398 124T467 104T512 61T528 -16Q528 -72 507 -111T449 -175T362 -211T254 -223Q194 -223 153 -213T87 -182T50 -133T39 -68Q39 -25 58 13T115 77Q98 89 88 105T77 152Q77 170 83 185T100 214T125 238T153 255Q139 273 132 296T125 352Q125 405 143 445T195 511T277 551T384 564H636L625 500ZM185 53Q156 29 142 0T128 -58Q128 -106 156 -128T256 -150Q346 -150 392 -122T438 -21Q438 2 431 16T407 39T363 50T297 53H185ZM374 490Q301 490 256 460T211 357Q211 313 237 291T335 268Q372 268 402 275T453 299T485 340T497 403Q497 445 471 467T374 490Z"  />
<glyph unicode="h" horiz-adv-x="639" d="M451 0L512 348Q518 384 518 408Q518 453 498 469T432 486Q385 486 340 473T265 447L200 78L253 73L241 0H43L55 73L110 78L219 695L166 700L179 774H323L278 519Q306 533 355 548T464 564Q544 564 576 526T609 421Q609 408 607 389T599 334L554 78L607 73L595 0H451Z"  />
<glyph unicode="i" horiz-adv-x="284" d="M43 0L56 74L110 78L180 471L126 476L139 550H283L200 78L254 74L241 0H43ZM210 652L232 774H325L303 652H210Z"  />
<glyph unicode="j" horiz-adv-x="263" d="M175 -66Q167 -110 155 -140T123 -188T75 -214T8 -222Q-11 -222 -31 -221T-57 -217L-45 -151Q-36 -151 -21 -151T13 -152Q31 -152 43 -148T62 -134T75 -108T85 -66L180 471L126 476L139 550H283L175 -66ZM209 652L231 774H324L302 652H209Z"  />
<glyph unicode="k" horiz-adv-x="567" d="M417 0L237 285L187 0H43L55 73L110 78L219 695L166 700L179 774H323L241 308L497 550H619L606 476L537 471L339 289L475 78L536 73L524 0H417Z"  />
<glyph unicode="l" horiz-adv-x="285" d="M44 0L56 73L111 78L220 695L167 700L180 774H324L201 78L254 73L242 0H44Z"  />
<glyph unicode="m" horiz-adv-x="899" d="M711 0L775 365Q778 385 780 401T783 432Q783 459 770 473T715 487Q686 487 647 475T568 441Q568 421 565 402T559 365L495 0H404L468 365Q472 385 474 402T476 433Q476 459 464 473T414 487Q396 487 377 483T338 472T299 457T264 439L200 78L253 73L241 0H43L55 73L110 78L180 471L126 476L139 550H282L275 507Q314 532 358 548T449 564Q497 564 523 548T561 505Q615 537 658 550T735 564Q778 564 805 554T847 527T869 489T875 443Q875 420 871 397T863 354L814 78L868 73L856 0H711Z"  />
<glyph unicode="n" horiz-adv-x="639" d="M451 0L512 348Q515 367 517 382T519 412Q519 450 502 468T442 486Q406 486 362 475T263 434L200 78L253 73L241 0H43L55 73L110 78L180 471L126 476L139 550H282L276 510Q327 539 373 551T462 564Q504 564 532 554T577 524T601 479T608 420Q608 400 606 379T599 334L554 78L607 73L595 0H451Z"  />
<glyph unicode="o" horiz-adv-x="581" d="M564 221Q543 100 476 43T295 -14Q191 -14 143 35T94 169Q94 215 100 251L114 331Q135 453 203 508T383 564Q483 564 534 519T586 380Q586 370 585 359T583 336T580 316T578 301L564 221ZM490 315Q494 337 495 351T496 380Q496 404 491 423T471 456T434 477T375 485Q334 485 305 475T256 445T222 392T201 315L187 235Q184 218 183 203T181 169Q181 115 208 90T301 65Q343 65 372 75T422 105T455 158T476 235L490 315Z"  />
<glyph unicode="p" horiz-adv-x="610" d="M594 240Q580 160 556 111T496 34T416 -4T317 -14Q289 -14 255 -10T197 2L173 -131L227 -136L213 -210H16L30 -136L84 -131L191 471L137 476L150 550H290L284 513Q326 539 369 551T453 564Q532 564 573 524T615 393Q615 352 604 294L594 240ZM518 308Q522 325 524 346T526 384Q526 441 501 463T425 485Q393 485 360 477T275 444L210 77Q242 70 272 66T330 62Q366 62 394 69T443 98T481 156T508 254L518 308Z"  />
<glyph unicode="q" horiz-adv-x="600" d="M322 -210L336 -136L390 -131L418 25Q367 3 326 -5T261 -14Q173 -14 133 27T92 156Q92 179 94 204T102 259L112 314Q126 393 151 442T213 518T294 554T394 564Q439 564 493 560T599 549L479 -132L532 -137L519 -210H322ZM497 480Q487 481 473 481T444 483T415 484T389 485Q350 485 320 479T266 454T226 397T199 297L189 242Q180 192 180 158Q180 107 201 86T273 65Q296 65 336 71T430 98L497 480Z"  />
<glyph unicode="r" horiz-adv-x="419" d="M467 484Q440 484 412 481T356 471T305 456T264 437L200 78L253 73L241 0H43L55 73L110 78L180 471L126 476L139 550H281L274 506Q319 537 371 550T481 564L467 484H467Z"  />
<glyph unicode="s" horiz-adv-x="491" d="M80 136H150L147 67Q173 65 196 64T244 63Q272 63 296 66T338 79T366 106T377 150Q377 165 373 175T359 195T330 215T282 239L246 256Q214 271 191 286T152 320T129 359T121 407Q121 455 139 485T188 533T258 557T338 564Q369 564 399 562T453 557T494 551T517 544L497 427H428V483Q405 485 379 486T337 487Q316 487 294 485T254 475T224 452T212 408Q212 385 229 369T293 333L331 316Q368 299 394 284T437 250T461 210T469 157Q469 74 407 30T233 -14Q204 -14 176 -12T123 -6T82 2T58 8L80 136Z"  />
<glyph unicode="t" horiz-adv-x="442" d="M392 1Q380 -3 350 -8T288 -14Q227 -14 201 11T174 87Q174 98 175 111T179 138L238 475L129 483L140 550H251L277 693H367L341 550H488L475 475H328L267 130Q262 102 262 89Q262 69 273 64T312 58Q335 58 362 59T403 63L392 1H392Z"  />
<glyph unicode="u" horiz-adv-x="639" d="M451 0L458 43Q404 15 356 1T263 -14Q223 -14 197 -3T155 27T133 72T126 128Q126 165 134 211L180 471L126 476L139 550H283L222 199Q218 176 216 159T214 127Q214 91 230 77T284 63Q321 63 366 75T470 112L534 471L480 476L493 550H637L554 78L607 73L595 0H451Z"  />
<glyph unicode="v" horiz-adv-x="635" d="M619 471L379 0H255L181 471L131 476L144 550H317L306 483L272 480L308 212Q313 171 317 135T324 61H326Q343 99 359 134T395 212L524 480L493 483L504 550H683L670 476L619 471Z"  />
<glyph unicode="w" horiz-adv-x="944" d="M930 472L740 0H610L563 330Q558 369 556 396T552 441H548Q541 423 531 396T501 330L342 0H204L180 472L131 476L144 550H324L313 483L272 479L281 210Q282 175 282 139T283 69H290Q309 111 322 144T350 209L489 505H634L667 209Q671 177 673 141T680 68H685Q698 103 711 138T738 210L840 479L802 483L813 550H992L979 476L930 472Z"  />
<glyph unicode="x" horiz-adv-x="613" d="M368 349L542 550H653L640 476L575 471L405 280L513 78L579 73L567 0H454L340 214L154 0H42L54 73L117 78L302 286L204 471L138 476L151 550H262L368 349Z"  />
<glyph unicode="y" horiz-adv-x="657" d="M630 471L358 -48Q337 -88 317 -120T272 -174T216 -209T142 -222Q107 -222 79 -219T37 -212L49 -143Q81 -145 103 -146T153 -147Q173 -147 188 -142T216 -123T242 -90T271 -39L292 0L193 471L131 476L144 550H328L317 483L285 480L329 241Q336 204 339 172T347 95H349Q368 139 382 171T417 242L537 480L505 483L516 550H705L692 476L630 471Z"  />
<glyph unicode="z" horiz-adv-x="502" d="M49 0L66 101L438 475H225L207 427H137L158 550H547L531 457L153 74H386L406 136H475L452 0H49Z"  />
<glyph unicode="{" horiz-adv-x="412" d="M250 -210Q207 -210 179 -203T134 -182T111 -149T104 -107Q104 -86 109 -58L138 113Q142 138 142 155T138 186T123 210T95 235L106 298Q127 311 141 322T166 347T182 377T192 419L225 604Q232 641 243 667T275 711T330 735T419 743H482L468 667H405Q378 667 362 665T336 655T322 636T314 604L281 419Q271 362 249 327T184 266Q216 240 227 205T227 113L195 -71Q192 -89 192 -101Q192 -122 206 -128T264 -135H328L314 -210H250Z"  />
<glyph unicode="|" horiz-adv-x="316" d="M188 -210V743H277V-210H188Z"  />
<glyph unicode="}" horiz-adv-x="412" d="M399 231Q378 218 363 207T338 182T322 152T312 109L279 -87Q273 -120 263 -143T231 -183T175 -206T86 -214H22L36 -139H100Q127 -139 143 -137T169 -127T183 -108T191 -75L223 109Q234 166 256 201T320 262Q287 288 277 323T277 415L310 600Q313 618 313 629Q313 649 299 656T241 663H178L192 739H255Q298 739 326 732T372 713T396 682T403 640Q403 619 398 591L366 415Q361 390 361 373T366 343T382 319T410 294L399 231H399Z"  />
<glyph unicode="~" horiz-adv-x="701" d="M668 479Q663 449 654 424T630 380T591 352T532 341Q503 341 473 352T421 386L376 432Q360 449 347 456T317 464Q289 464 277 447T258 395L250 350H177L185 395Q196 457 228 495T325 534Q357 534 381 524T429 490L473 445Q487 431 503 421T539 411Q568 411 579 429T595 479L603 526H676L668 479H668Z"  />
<glyph unicode="&#xA0;" horiz-adv-x="191" />
<glyph unicode="&#xA1;" horiz-adv-x="251" d="M33 -225L145 356H223L130 -225H33ZM239 414H148L172 549H263L239 414Z"  />
<glyph unicode="&#xA2;" horiz-adv-x="518" d="M437 6Q425 2 391 -4T312 -12L293 -120H212L232 -9Q160 6 128 52T95 175Q95 194 97 213T103 254L116 327Q135 436 188 491T332 560L351 668H433L415 563Q458 561 489 555T532 545L511 427H441L442 485Q427 486 411 486T377 487Q344 487 317 480T267 453T229 399T204 312L191 239Q188 220 186 204T184 174Q184 141 192 120T216 87T254 69T303 64Q346 64 448 73L437 6H437Z"  />
<glyph unicode="&#xA3;" horiz-adv-x="623" d="M97 0L109 70Q141 99 156 132T177 196L204 349H126L139 425H217L231 501Q242 563 259 610T307 690T384 738T501 755Q568 755 617 748T687 735L662 592H591L593 671Q573 673 546 674T492 675Q445 675 417 666T370 637T342 584T323 501L309 425H558L545 349H296L269 196Q263 160 249 132T212 78H571L558 0H97Z"  />
<glyph unicode="&#xA4;" horiz-adv-x="652" d="M588 129L512 204Q487 188 458 180T401 171Q372 171 344 179T289 204L213 130L151 192L226 267Q210 292 202 321T193 379Q193 409 201 437T226 491L151 566L213 628L289 554Q315 571 343 578T401 586Q430 586 458 579T513 554L588 627L651 566L576 491Q592 465 600 437T609 379Q609 318 576 267L651 192L588 129ZM534 379Q534 407 523 432T494 475T452 504T401 515Q374 515 350 505T308 476T279 432T268 379Q268 351 279 326T308 283T350 254T401 243Q428 243 452 253T494 282T523 326T534 379Z"  />
<glyph unicode="&#xA5;" horiz-adv-x="648" d="M411 241L383 81L436 76L423 0H224L237 76L292 81L320 241H93L106 312H327L290 411H124L136 482H264L203 665L158 669L172 743H278L358 498Q366 472 374 441T391 386H393Q409 409 428 440T465 498L633 743H738L724 669L678 665L551 482H680L668 411H501L430 312H651L638 241H411Z"  />
<glyph unicode="&#xA6;" horiz-adv-x="316" d="M188 -207V189H277V-207H188ZM188 348V743H277V348H188Z"  />
<glyph unicode="&#xA7;" horiz-adv-x="641" d="M164 -49L159 -130Q185 -132 202 -132T232 -134T258 -135T285 -135Q322 -135 354 -128T410 -103T446 -57T460 14Q460 27 456 39T442 64T413 90T366 120L251 185Q198 215 171 257T144 348Q144 380 156 413T193 479Q187 492 184 510T181 549Q181 609 203 648T263 711T352 745T460 755Q527 755 581 748T661 735L636 592H566L568 668Q540 670 509 671T449 672Q416 672 386 668T332 651T294 614T279 549Q279 521 296 499T361 451L472 392Q533 360 564 316T596 220Q596 188 584 155T545 87Q551 73 553 55T556 18Q556 -103 481 -160T275 -218Q196 -218 142 -211T67 -198L93 -49H164ZM491 148Q504 180 504 207Q504 239 484 263T419 312L308 371Q294 379 284 385T267 397T255 408T243 419Q237 400 233 384T229 353Q229 328 245 306T309 258L422 196Q439 187 458 175T491 148Z"  />
<glyph unicode="&#xA8;" horiz-adv-x="457" d="M416 643L437 761H518L497 643H416ZM269 643H187L208 761H290L269 643Z"  />
<glyph unicode="&#xA9;" horiz-adv-x="845" d="M842 377Q842 291 816 223T744 109T634 38T494 13Q418 13 354 37T244 108T171 223T145 377Q145 462 171 529T243 644T354 715T494 740Q570 740 634 716T744 644T816 530T842 377ZM770 377Q770 446 750 501T693 594T606 652T494 673Q433 673 383 653T296 594T239 501T219 377Q219 307 239 252T295 159T382 100T494 79Q555 79 605 99T692 158T749 252T770 377ZM612 173Q603 171 590 169T562 166T530 164T500 163Q412 163 366 210T319 346V408Q319 499 365 544T500 590Q514 590 530 590T562 588T591 584T612 580V480H556L549 522Q538 523 528 523T504 523Q473 523 453 517T421 497T405 461T400 408V346Q400 315 404 293T421 257T453 237T504 230Q517 230 527 230T549 232L556 273H612V173Z"  />
<glyph unicode="&#xAA;" horiz-adv-x="432" d="M358 434L362 458Q344 447 313 437T245 426Q194 426 172 448T149 518Q149 557 163 580T203 616T263 632T339 636H389L392 655Q395 671 395 683Q395 706 381 713T324 721Q296 721 266 718L255 687H203L216 761Q226 764 262 770T344 777Q380 777 404 771T443 755T464 728T470 693Q470 684 469 675T466 655L438 494L469 492L459 434H358ZM382 588H331Q309 588 289 587T253 578T228 557T219 518Q219 492 231 487T267 482Q297 482 326 491T368 507L382 588Z"  />
<glyph unicode="&#xAB;" horiz-adv-x="676" d="M526 81L399 289L599 495H705L510 289L632 81H526ZM338 81H232L105 289L305 495H411L216 289L338 81Z"  />
<glyph unicode="&#xAC;" horiz-adv-x="702" d="M574 244V464H202V539H649V244H574Z"  />
<glyph unicode="&#xAD;" horiz-adv-x="396" d="M118 255L132 330H379L365 255H118Z"  />
<glyph unicode="&#xAE;" horiz-adv-x="682" d="M681 476Q681 412 662 360T609 270T524 213T413 193Q351 193 302 213T218 270T164 359T145 476Q145 540 164 592T217 682T301 739T413 759Q474 759 524 739T608 682T662 593T681 476ZM620 476Q620 583 565 643T413 703Q315 703 260 643T205 476Q205 367 260 308T413 248Q510 248 565 307T620 476ZM286 325V367L309 370V598L286 601V646Q313 647 340 647T396 647Q426 647 452 644T496 630T526 600T537 550V547Q537 475 473 455L531 371L558 368V325H486L406 444H372V370L395 367V325H286ZM473 550Q473 582 454 589T396 596H372V493H397Q435 493 454 504T473 547V550Z"  />
<glyph unicode="&#xAF;" horiz-adv-x="457" d="M172 655L184 725H527L515 655H172Z"  />
<glyph unicode="&#xB0;" horiz-adv-x="454" d="M475 581Q475 545 462 514T424 459T369 423T301 409Q265 409 234 422T179 459T142 513T128 581Q128 617 141 648T178 703T233 740T301 754Q337 754 368 741T424 704T461 649T475 581ZM399 581Q399 626 371 653T300 681Q259 681 231 654T202 581Q202 537 230 509T300 481Q342 481 370 509T399 581Z"  />
<glyph unicode="&#xB1;" horiz-adv-x="702" d="M178 0V74H672V0H178ZM463 384V169H390V384H175V457H390V672H463V457H676V384H463Z"  />
<glyph unicode="&#xB2;" horiz-adv-x="451" d="M115 301L124 357Q130 396 142 424T176 475T229 515T305 553Q354 574 385 593T416 647Q416 674 395 684T324 694Q310 694 290 694T250 691L236 646H181L198 740Q205 741 221 744T257 749T300 754T344 756Q423 756 460 730T497 655Q497 623 486 601T454 561T406 530T345 500Q305 482 281 469T241 441T219 411T208 370L207 365H381L394 408H449L431 301H115Z"  />
<glyph unicode="&#xB3;" horiz-adv-x="450" d="M186 356Q203 355 223 354T263 353Q317 353 347 375T378 459Q378 478 365 489T310 501H174L184 561H321Q363 561 387 583T412 650Q412 674 392 684T322 694Q304 694 284 694T247 691L233 646H178L195 740Q201 741 216 744T251 749T294 754T339 756Q416 756 455 732T494 656Q494 616 475 583T417 531Q440 519 449 498T458 454Q458 409 444 378T403 327T339 300T257 291Q236 291 215 293T174 298T140 304T117 310L134 405H189L186 356H186Z"  />
<glyph unicode="&#xB4;" horiz-adv-x="457" d="M349 616H259L417 770H526L349 616Z"  />
<glyph unicode="&#xB5;" horiz-adv-x="645" d="M183 471L129 476L142 550H286L225 199Q218 161 217 136T223 94T248 70T294 63Q355 63 473 112L537 471L483 476L496 550H640L557 78L610 73L598 0H454L461 43Q402 15 353 1T260 -14Q217 -14 189 -2L166 -131L220 -136L206 -210H8L22 -136L76 -131L183 471Z"  />
<glyph unicode="&#xB6;" horiz-adv-x="736" d="M535 -198L687 666H630L478 -198H282L295 -124L408 -118L474 257H428Q367 257 316 264T228 292T170 347T149 436Q149 463 155 495L157 505Q170 581 202 627T281 699T390 734T523 743H785L619 -198H535Z"  />
<glyph unicode="&#xB7;" horiz-adv-x="252" d="M146 300L171 438H262L237 300H146Z"  />
<glyph unicode="&#xB8;" horiz-adv-x="457" d="M127 -210H35L177 -68H289L127 -210Z"  />
<glyph unicode="&#xB9;" horiz-adv-x="430" d="M128 300L139 359L243 362L298 672L187 639L199 706L335 749H394L325 362L429 359L418 300H128Z"  />
<glyph unicode="&#xBA;" horiz-adv-x="437" d="M482 576Q468 498 420 462T292 425Q225 425 192 458T158 550Q158 561 159 571T162 594L167 627Q181 706 228 741T355 777Q423 777 457 745T491 653Q491 642 490 631T487 609L482 576ZM415 618Q417 628 418 636T419 652Q419 686 401 701T344 716Q298 716 273 694T238 618L233 585Q231 575 230 567T229 551Q229 517 247 502T303 487Q350 487 375 509T410 585L415 618Z"  />
<glyph unicode="&#xBB;" horiz-adv-x="676" d="M472 81H366L560 289L439 495H545L671 289L472 81ZM377 289L177 81H71L266 289L144 495H250L377 289Z"  />
<glyph unicode="&#xBC;" horiz-adv-x="942" d="M834 110L824 54L856 51L848 0H700L708 51L742 54L752 110H527L539 176L815 446H893L845 171H915L904 110H834ZM798 352L613 171H766L798 352ZM313 0H223L828 743H918L313 0ZM120 300L131 359L235 362L290 672L180 639L192 706L327 749H386L317 362L421 359L410 300H120Z"  />
<glyph unicode="&#xBD;" horiz-adv-x="1033" d="M313 0H223L828 743H918L313 0ZM120 300L131 359L235 362L290 672L180 639L192 706L327 749H386L317 362L421 359L410 300H120ZM644 0L653 56Q659 95 671 123T705 174T758 214T834 252Q883 273 914 292T945 346Q945 373 924 383T853 393Q839 393 819 393T779 390L765 345H710L727 439Q734 440 750 443T786 448T829 453T873 455Q952 455 989 429T1026 354Q1026 322 1015 300T983 260T935 229T874 199Q834 181 810 168T770 140T748 110T737 69L736 64H910L923 107H978L960 0H644Z"  />
<glyph unicode="&#xBE;" horiz-adv-x="988" d="M322 0H232L836 743H926L322 0ZM873 110L863 54L895 51L887 0H739L747 51L781 54L791 110H566L578 176L854 446H932L884 171H954L943 110H873ZM837 352L652 171H805L837 352ZM182 356Q199 355 219 354T259 353Q313 353 343 375T374 459Q374 478 361 489T306 501H170L180 561H317Q359 561 383 583T408 650Q408 674 388 684T318 694Q300 694 280 694T243 691L229 646H174L191 740Q197 741 212 744T247 749T290 754T335 756Q412 756 451 732T490 656Q490 616 471 583T413 531Q436 519 445 498T454 454Q454 409 440 378T399 327T335 300T253 291Q232 291 211 293T170 298T136 304T113 310L130 405H185L182 356Z"  />
<glyph unicode="&#xBF;" horiz-adv-x="496" d="M454 550L430 412H339L363 550H454ZM407 -214Q367 -224 322 -230T237 -237Q194 -237 160 -230T101 -208T64 -167T51 -103Q51 -67 61 -37T90 20T136 74T196 129Q236 163 259 186T296 230T314 269T325 315L332 357H419L412 315Q406 283 399 257T378 206T339 154T273 92Q252 75 230 55T190 12T160 -38T148 -95Q148 -133 177 -145T259 -158Q279 -158 297 -158T335 -156L359 -80H430L407 -214Z"  />
<glyph unicode="&#xC0;" horiz-adv-x="743" d="M36 0L48 73L104 78L399 664L341 669L355 743H566L666 78L717 73L705 0H503L515 73L571 77L548 243H282L200 77L251 73L239 0H36ZM503 544Q498 574 497 603T495 666H485Q472 633 460 604T433 544L324 327H535L503 544ZM492 800L369 954H475L579 800H492Z"  />
<glyph unicode="&#xC1;" horiz-adv-x="743" d="M36 0L48 73L104 78L399 664L341 669L355 743H566L666 78L717 73L705 0H503L515 73L571 77L548 243H282L200 77L251 73L239 0H36ZM503 544Q498 574 497 603T495 666H485Q472 633 460 604T433 544L324 327H535L503 544ZM504 800H414L572 954H681L504 800Z"  />
<glyph unicode="&#xC2;" horiz-adv-x="743" d="M36 0L48 73L104 78L399 664L341 669L355 743H566L666 78L717 73L705 0H503L515 73L571 77L548 243H282L200 77L251 73L239 0H36ZM503 544Q498 574 497 603T495 666H485Q472 633 460 604T433 544L324 327H535L503 544ZM617 800L531 905L408 800H315L477 954H596L704 800H617Z"  />
<glyph unicode="&#xC3;" horiz-adv-x="743" d="M36 0L48 73L104 78L399 664L341 669L355 743H566L666 78L717 73L705 0H503L515 73L571 77L548 243H282L200 77L251 73L239 0H36ZM503 544Q498 574 497 603T495 666H485Q472 633 460 604T433 544L324 327H535L503 544ZM735 925Q725 868 699 835T616 801Q588 801 566 811T522 842L486 875Q472 889 461 896T434 903Q413 903 404 887T389 842L383 808H318L324 842Q334 899 363 932T446 966Q475 966 494 957T536 928L572 894Q586 881 598 873T626 865Q648 865 657 880T671 925L677 959H741L735 925H735Z"  />
<glyph unicode="&#xC4;" horiz-adv-x="743" d="M36 0L48 73L104 78L399 664L341 669L355 743H566L666 78L717 73L705 0H503L515 73L571 77L548 243H282L200 77L251 73L239 0H36ZM503 544Q498 574 497 603T495 666H485Q472 633 460 604T433 544L324 327H535L503 544ZM584 811L605 929H686L665 811H584ZM437 811H355L376 929H458L437 811Z"  />
<glyph unicode="&#xC5;" horiz-adv-x="743" d="M36 0L48 73L104 78L399 664L341 669L355 743H566L666 78L717 73L705 0H503L515 73L571 77L548 243H282L200 77L251 73L239 0H36ZM503 544Q498 574 497 603T495 666H485Q472 633 460 604T433 544L324 327H535L503 544ZM640 872Q640 814 607 789T525 763Q500 763 479 769T441 788T416 822T407 872Q407 901 416 921T441 955T478 975T525 981Q574 981 607 956T640 872ZM580 872Q580 904 564 915T525 927Q501 927 485 916T469 872Q469 841 485 829T525 817Q548 817 564 829T580 872Z"  />
<glyph unicode="&#xC6;" horiz-adv-x="996" d="M47 73L103 79L398 664L344 669L358 743H1070L1043 592H972L974 661H707L666 427H994L979 344H651L605 81H872L894 152H965L939 0H446L458 73L513 78L542 243H278L196 76L247 73L235 0H35L47 73ZM616 662H484Q471 634 458 607T431 550L320 325H557L616 662Z"  />
<glyph unicode="&#xC7;" horiz-adv-x="599" d="M546 3Q534 1 514 -2T468 -7T415 -12T361 -14Q307 -14 260 -4T177 33T121 105T101 220Q101 269 111 325L133 448Q151 550 186 610T270 703T376 745T497 755Q523 755 550 753T601 749T645 743T676 738L650 592H579L582 670Q561 671 533 672T482 673Q425 673 383 661T309 622T257 548T224 433L202 310Q193 259 193 221Q193 178 204 149T238 102T295 77T376 69Q399 69 427 69T476 71L501 151H572L546 3ZM215 -210H123L265 -68H377L215 -210Z"  />
<glyph unicode="&#xC8;" horiz-adv-x="600" d="M50 0L62 73L117 78L221 664L167 669L181 743H655L628 592H556L558 661H312L271 427H578L563 344H256L210 81H456L478 152H550L524 0H50ZM448 800L325 954H431L535 800H448Z"  />
<glyph unicode="&#xC9;" horiz-adv-x="600" d="M50 0L62 73L117 78L221 664L167 669L181 743H655L628 592H556L558 661H312L271 427H578L563 344H256L210 81H456L478 152H550L524 0H50ZM480 800H390L548 954H657L480 800Z"  />
<glyph unicode="&#xCA;" horiz-adv-x="600" d="M50 0L62 73L117 78L221 664L167 669L181 743H655L628 592H556L558 661H312L271 427H578L563 344H256L210 81H456L478 152H550L524 0H50ZM560 800L474 905L351 800H258L420 954H539L647 800H560Z"  />
<glyph unicode="&#xCB;" horiz-adv-x="600" d="M50 0L62 73L117 78L221 664L167 669L181 743H655L628 592H556L558 661H312L271 427H578L563 344H256L210 81H456L478 152H550L524 0H50ZM538 811L559 929H640L619 811H538ZM391 811H309L330 929H412L391 811Z"  />
<glyph unicode="&#xCC;" horiz-adv-x="304" d="M52 0L64 73L119 78L223 664L169 669L183 743H383L369 669L315 664L211 78L264 73L252 0H52ZM285 800L162 954H268L372 800H285Z"  />
<glyph unicode="&#xCD;" horiz-adv-x="304" d="M52 0L64 73L119 78L223 664L169 669L183 743H383L369 669L315 664L211 78L264 73L252 0H52ZM307 800H217L375 954H484L307 800Z"  />
<glyph unicode="&#xCE;" horiz-adv-x="304" d="M52 0L64 73L119 78L223 664L169 669L183 743H383L369 669L315 664L211 78L264 73L252 0H52ZM401 800L315 905L192 800H99L261 954H380L488 800H401Z"  />
<glyph unicode="&#xCF;" horiz-adv-x="304" d="M52 0L64 73L119 78L223 664L169 669L183 743H383L369 669L315 664L211 78L264 73L252 0H52ZM370 811L391 929H472L451 811H370ZM223 811H141L162 929H244L223 811Z"  />
<glyph unicode="&#xD0;" horiz-adv-x="695" d="M124 426H177L219 661L166 669L180 743H428Q513 743 569 726T659 679T707 605T721 508Q721 464 712 415L691 294Q678 223 651 169T578 77T467 20T311 0H49L61 73L117 81L163 345H109L124 426ZM620 433Q624 454 625 472T627 508Q627 594 576 627T420 661H311L269 426H419L404 345H255L209 81H318Q378 81 424 91T506 128T564 199T599 312L620 433Z"  />
<glyph unicode="&#xD1;" horiz-adv-x="746" d="M758 664L641 0H510L341 533Q333 561 323 593T304 659H302Q293 583 279 504L204 78L257 73L245 0H51L63 73L118 78L222 664L168 669L182 743H368L535 224Q544 197 554 162T573 97H575Q580 142 586 183T598 260L670 665L617 670L630 743H826L812 669L758 664ZM728 920Q718 863 692 830T609 796Q581 796 559 806T515 837L479 870Q465 884 454 891T427 898Q406 898 397 882T382 837L376 803H311L317 837Q327 894 356 927T439 961Q468 961 487 952T529 923L565 889Q579 876 591 868T619 860Q641 860 650 875T664 920L670 954H734L728 920H728Z"  />
<glyph unicode="&#xD2;" horiz-adv-x="683" d="M682 303Q625 -14 344 -14Q221 -14 162 51T103 234Q103 279 112 332L130 438Q157 598 243 676T468 755Q530 755 575 738T651 690T695 613T710 512Q710 486 708 461T700 409L682 303ZM609 424Q612 442 615 467T618 512Q618 599 580 636T459 673Q412 673 374 660T305 616T254 539T221 423L203 317Q200 301 198 275T195 229Q195 142 235 105T352 68Q399 68 437 81T506 125T557 202T591 318L609 424ZM463 800L340 954H446L550 800H463Z"  />
<glyph unicode="&#xD3;" horiz-adv-x="683" d="M682 303Q625 -14 344 -14Q221 -14 162 51T103 234Q103 279 112 332L130 438Q157 598 243 676T468 755Q530 755 575 738T651 690T695 613T710 512Q710 486 708 461T700 409L682 303ZM609 424Q612 442 615 467T618 512Q618 599 580 636T459 673Q412 673 374 660T305 616T254 539T221 423L203 317Q200 301 198 275T195 229Q195 142 235 105T352 68Q399 68 437 81T506 125T557 202T591 318L609 424ZM503 800H413L571 954H680L503 800Z"  />
<glyph unicode="&#xD4;" horiz-adv-x="683" d="M682 303Q625 -14 344 -14Q221 -14 162 51T103 234Q103 279 112 332L130 438Q157 598 243 676T468 755Q530 755 575 738T651 690T695 613T710 512Q710 486 708 461T700 409L682 303ZM609 424Q612 442 615 467T618 512Q618 599 580 636T459 673Q412 673 374 660T305 616T254 539T221 423L203 317Q200 301 198 275T195 229Q195 142 235 105T352 68Q399 68 437 81T506 125T557 202T591 318L609 424ZM589 800L503 905L380 800H287L449 954H568L676 800H589Z"  />
<glyph unicode="&#xD5;" horiz-adv-x="683" d="M682 303Q625 -14 344 -14Q221 -14 162 51T103 234Q103 279 112 332L130 438Q157 598 243 676T468 755Q530 755 575 738T651 690T695 613T710 512Q710 486 708 461T700 409L682 303ZM609 424Q612 442 615 467T618 512Q618 599 580 636T459 673Q412 673 374 660T305 616T254 539T221 423L203 317Q200 301 198 275T195 229Q195 142 235 105T352 68Q399 68 437 81T506 125T557 202T591 318L609 424ZM700 920Q690 863 664 830T581 796Q553 796 531 806T487 837L451 870Q437 884 426 891T399 898Q378 898 369 882T354 837L348 803H283L289 837Q299 894 328 927T411 961Q440 961 459 952T501 923L537 889Q551 876 563 868T591 860Q613 860 622 875T636 920L642 954H706L700 920H700Z"  />
<glyph unicode="&#xD6;" horiz-adv-x="683" d="M682 303Q625 -14 344 -14Q221 -14 162 51T103 234Q103 279 112 332L130 438Q157 598 243 676T468 755Q530 755 575 738T651 690T695 613T710 512Q710 486 708 461T700 409L682 303ZM609 424Q612 442 615 467T618 512Q618 599 580 636T459 673Q412 673 374 660T305 616T254 539T221 423L203 317Q200 301 198 275T195 229Q195 142 235 105T352 68Q399 68 437 81T506 125T557 202T591 318L609 424ZM558 811L579 929H660L639 811H558ZM411 811H329L350 929H432L411 811Z"  />
<glyph unicode="&#xD7;" horiz-adv-x="702" d="M576 188L426 338L274 186L223 237L375 390L222 542L273 593L426 441L577 593L629 541L477 389L628 239L576 188Z"  />
<glyph unicode="&#xD8;" horiz-adv-x="683" d="M682 303Q625 -14 344 -14Q226 -14 165 49L121 0H28L125 109Q103 160 103 234Q103 279 112 332L130 438Q157 598 243 676T468 755Q586 755 648 693L693 743H786L687 633Q710 579 710 512Q710 486 708 461T700 409L682 303ZM195 229Q195 218 195 208T197 189L588 626Q569 651 538 662T459 673Q412 673 374 660T305 616T254 539T221 423L203 317Q200 301 198 275T195 229ZM609 424Q612 442 615 467T618 512Q618 534 615 552L225 116Q245 90 276 79T352 68Q399 68 437 81T506 125T557 202T591 318L609 424Z"  />
<glyph unicode="&#xD9;" horiz-adv-x="747" d="M760 665L694 295Q680 214 656 156T595 60T506 4T383 -14Q261 -14 205 45T149 210Q149 240 152 268T161 328L221 665L168 670L181 743H381L368 670L313 665L252 319Q240 256 240 210Q240 135 275 102T393 69Q447 69 483 83T542 127T581 204T608 319L669 665L616 670L629 743H828L815 670L760 665ZM493 800L370 954H476L580 800H493Z"  />
<glyph unicode="&#xDA;" horiz-adv-x="747" d="M760 665L694 295Q680 214 656 156T595 60T506 4T383 -14Q261 -14 205 45T149 210Q149 240 152 268T161 328L221 665L168 670L181 743H381L368 670L313 665L252 319Q240 256 240 210Q240 135 275 102T393 69Q447 69 483 83T542 127T581 204T608 319L669 665L616 670L629 743H828L815 670L760 665ZM540 800H450L608 954H717L540 800Z"  />
<glyph unicode="&#xDB;" horiz-adv-x="747" d="M760 665L694 295Q680 214 656 156T595 60T506 4T383 -14Q261 -14 205 45T149 210Q149 240 152 268T161 328L221 665L168 670L181 743H381L368 670L313 665L252 319Q240 256 240 210Q240 135 275 102T393 69Q447 69 483 83T542 127T581 204T608 319L669 665L616 670L629 743H828L815 670L760 665ZM625 800L539 905L416 800H323L485 954H604L712 800H625Z"  />
<glyph unicode="&#xDC;" horiz-adv-x="747" d="M760 665L694 295Q680 214 656 156T595 60T506 4T383 -14Q261 -14 205 45T149 210Q149 240 152 268T161 328L221 665L168 670L181 743H381L368 670L313 665L252 319Q240 256 240 210Q240 135 275 102T393 69Q447 69 483 83T542 127T581 204T608 319L669 665L616 670L629 743H828L815 670L760 665ZM589 811L610 929H691L670 811H589ZM442 811H360L381 929H463L442 811Z"  />
<glyph unicode="&#xDD;" horiz-adv-x="642" d="M688 665L417 294L380 81L433 76L420 0H221L234 76L289 81L326 294L187 665L142 669L156 743H350L338 675L282 670L346 498Q356 472 366 441T383 380H389Q404 409 427 440T469 498L594 670L536 675L548 743H748L734 669L688 665ZM516 800H426L584 954H693L516 800Z"  />
<glyph unicode="&#xDE;" horiz-adv-x="637" d="M379 608Q439 608 491 602T582 575T643 517T666 420Q666 345 640 294T568 212T457 168T316 154H218L205 78L257 73L245 0H46L58 73L113 78L216 664L163 669L176 743H375L362 670L308 665L298 608H379ZM330 236Q379 236 422 242T499 267T551 323T571 420Q571 454 559 475T523 507T464 523T382 527H284L233 236H330Z"  />
<glyph unicode="&#xDF;" horiz-adv-x="633" d="M281 66Q303 65 317 65T338 65Q387 65 424 80T486 122T523 186T535 269Q535 317 501 343T387 370H335L347 441H399Q483 441 531 486T580 619Q580 661 554 685T458 709Q417 709 387 699T334 664T296 598T269 496L182 0H39L51 73L106 78L183 512Q195 581 217 633T273 719T356 770T471 787Q523 787 560 774T622 738T657 685T669 618Q669 550 638 495T540 410Q581 393 602 355T623 267Q623 132 545 63T328 -7Q315 -7 269 -4L281 66Z"  />
<glyph unicode="&#xE0;" horiz-adv-x="574" d="M391 0L397 37Q369 20 325 3T220 -14Q76 -14 76 112Q76 130 79 153L82 173Q90 228 113 259T172 307T256 327T362 332H445L452 372Q458 403 458 424Q458 462 433 475T343 488Q299 488 251 485L232 427H162L182 540Q188 542 205 546T247 554T301 561T363 564Q418 564 454 555T511 530T540 490T549 437Q549 420 547 401T540 360L490 78L543 73L531 0H391ZM433 264H350Q306 264 275 261T223 246T189 215T170 162L165 135Q164 129 164 124T163 110Q163 79 183 68T242 56Q267 56 291 61T338 72T377 86T404 100L433 264ZM387 616L264 770H370L474 616H387Z"  />
<glyph unicode="&#xE1;" horiz-adv-x="574" d="M391 0L397 37Q369 20 325 3T220 -14Q76 -14 76 112Q76 130 79 153L82 173Q90 228 113 259T172 307T256 327T362 332H445L452 372Q458 403 458 424Q458 462 433 475T343 488Q299 488 251 485L232 427H162L182 540Q188 542 205 546T247 554T301 561T363 564Q418 564 454 555T511 530T540 490T549 437Q549 420 547 401T540 360L490 78L543 73L531 0H391ZM433 264H350Q306 264 275 261T223 246T189 215T170 162L165 135Q164 129 164 124T163 110Q163 79 183 68T242 56Q267 56 291 61T338 72T377 86T404 100L433 264ZM426 616H336L494 770H603L426 616Z"  />
<glyph unicode="&#xE2;" horiz-adv-x="574" d="M391 0L397 37Q369 20 325 3T220 -14Q76 -14 76 112Q76 130 79 153L82 173Q90 228 113 259T172 307T256 327T362 332H445L452 372Q458 403 458 424Q458 462 433 475T343 488Q299 488 251 485L232 427H162L182 540Q188 542 205 546T247 554T301 561T363 564Q418 564 454 555T511 530T540 490T549 437Q549 420 547 401T540 360L490 78L543 73L531 0H391ZM433 264H350Q306 264 275 261T223 246T189 215T170 162L165 135Q164 129 164 124T163 110Q163 79 183 68T242 56Q267 56 291 61T338 72T377 86T404 100L433 264ZM496 616L410 721L287 616H194L356 770H475L583 616H496Z"  />
<glyph unicode="&#xE3;" horiz-adv-x="574" d="M391 0L397 37Q369 20 325 3T220 -14Q76 -14 76 112Q76 130 79 153L82 173Q90 228 113 259T172 307T256 327T362 332H445L452 372Q458 403 458 424Q458 462 433 475T343 488Q299 488 251 485L232 427H162L182 540Q188 542 205 546T247 554T301 561T363 564Q418 564 454 555T511 530T540 490T549 437Q549 420 547 401T540 360L490 78L543 73L531 0H391ZM433 264H350Q306 264 275 261T223 246T189 215T170 162L165 135Q164 129 164 124T163 110Q163 79 183 68T242 56Q267 56 291 61T338 72T377 86T404 100L433 264ZM609 736Q599 679 573 646T490 612Q462 612 440 622T396 653L360 686Q346 700 335 707T308 714Q287 714 278 698T263 653L257 619H192L198 653Q208 710 237 743T320 777Q349 777 368 768T410 739L446 705Q460 692 472 684T500 676Q522 676 531 691T545 736L551 770H615L609 736H609Z"  />
<glyph unicode="&#xE4;" horiz-adv-x="574" d="M391 0L397 37Q369 20 325 3T220 -14Q76 -14 76 112Q76 130 79 153L82 173Q90 228 113 259T172 307T256 327T362 332H445L452 372Q458 403 458 424Q458 462 433 475T343 488Q299 488 251 485L232 427H162L182 540Q188 542 205 546T247 554T301 561T363 564Q418 564 454 555T511 530T540 490T549 437Q549 420 547 401T540 360L490 78L543 73L531 0H391ZM433 264H350Q306 264 275 261T223 246T189 215T170 162L165 135Q164 129 164 124T163 110Q163 79 183 68T242 56Q267 56 291 61T338 72T377 86T404 100L433 264ZM467 643L488 761H569L548 643H467ZM320 643H238L259 761H341L320 643Z"  />
<glyph unicode="&#xE5;" horiz-adv-x="574" d="M391 0L397 37Q369 20 325 3T220 -14Q76 -14 76 112Q76 130 79 153L82 173Q90 228 113 259T172 307T256 327T362 332H445L452 372Q458 403 458 424Q458 462 433 475T343 488Q299 488 251 485L232 427H162L182 540Q188 542 205 546T247 554T301 561T363 564Q418 564 454 555T511 530T540 490T549 437Q549 420 547 401T540 360L490 78L543 73L531 0H391ZM433 264H350Q306 264 275 261T223 246T189 215T170 162L165 135Q164 129 164 124T163 110Q163 79 183 68T242 56Q267 56 291 61T338 72T377 86T404 100L433 264ZM527 709Q527 651 494 626T412 600Q387 600 366 606T328 625T303 659T294 709Q294 738 303 758T328 792T365 812T412 818Q461 818 494 793T527 709ZM467 709Q467 741 451 752T412 764Q388 764 372 753T356 709Q356 678 372 666T412 654Q435 654 451 666T467 709Z"  />
<glyph unicode="&#xE6;" horiz-adv-x="903" d="M520 242L518 231Q515 214 513 199T511 169Q511 145 517 126T540 93T584 72T654 64Q701 64 754 68T850 80L837 8Q806 0 756 -7T639 -14Q569 -14 524 3T455 55Q397 19 337 3T220 -14Q76 -14 76 112Q76 130 79 153L82 173Q90 228 113 259T172 307T256 327T362 332H445L452 372Q458 403 458 424Q458 462 433 475T343 488Q299 488 251 485L232 427H162L182 540Q188 542 205 546T247 554T301 561T363 564Q441 564 480 547T536 499Q602 564 710 564Q807 564 861 520T915 377Q915 344 911 312T898 242H520ZM433 264H350Q306 264 275 261T223 246T189 215T170 162L165 135Q164 129 164 124T163 110Q163 79 183 68T242 56Q267 56 291 61T338 72T377 86T404 100L433 264ZM819 316Q822 333 824 348T826 377Q826 398 821 417T803 452T766 476T706 486Q660 486 629 471T579 431T549 379T535 326L533 316H819Z"  />
<glyph unicode="&#xE7;" horiz-adv-x="504" d="M451 5Q435 0 389 -7T283 -14Q185 -14 140 37T95 176Q95 193 96 212T102 251L116 334Q137 453 204 508T385 564Q413 564 439 562T486 557T524 551T547 545L526 427H456V484Q449 485 439 485T418 486T398 487T383 487Q347 487 318 480T266 453T228 401T203 317L189 234Q183 198 183 172Q183 137 192 116T218 83T258 67T309 63Q332 63 372 65T463 73L451 5ZM167 -210H75L217 -68H329L167 -210Z"  />
<glyph unicode="&#xE8;" horiz-adv-x="570" d="M187 242L185 231Q182 214 180 199T178 169Q178 145 184 126T207 93T251 72T321 64Q368 64 421 68T517 80L504 8Q473 0 423 -7T306 -14Q190 -14 140 35T90 173Q90 196 93 220T101 272L108 314Q120 379 144 426T203 504T282 549T377 564Q474 564 528 520T582 377Q582 344 578 312T565 242H187ZM486 316Q489 333 491 348T493 377Q493 398 488 417T470 452T433 476T373 486Q327 486 297 471T247 431T217 379T203 326L201 316H486ZM390 616L267 770H373L477 616H390Z"  />
<glyph unicode="&#xE9;" horiz-adv-x="570" d="M187 242L185 231Q182 214 180 199T178 169Q178 145 184 126T207 93T251 72T321 64Q368 64 421 68T517 80L504 8Q473 0 423 -7T306 -14Q190 -14 140 35T90 173Q90 196 93 220T101 272L108 314Q120 379 144 426T203 504T282 549T377 564Q474 564 528 520T582 377Q582 344 578 312T565 242H187ZM486 316Q489 333 491 348T493 377Q493 398 488 417T470 452T433 476T373 486Q327 486 297 471T247 431T217 379T203 326L201 316H486ZM434 616H344L502 770H611L434 616Z"  />
<glyph unicode="&#xEA;" horiz-adv-x="570" d="M187 242L185 231Q182 214 180 199T178 169Q178 145 184 126T207 93T251 72T321 64Q368 64 421 68T517 80L504 8Q473 0 423 -7T306 -14Q190 -14 140 35T90 173Q90 196 93 220T101 272L108 314Q120 379 144 426T203 504T282 549T377 564Q474 564 528 520T582 377Q582 344 578 312T565 242H187ZM486 316Q489 333 491 348T493 377Q493 398 488 417T470 452T433 476T373 486Q327 486 297 471T247 431T217 379T203 326L201 316H486ZM507 616L421 721L298 616H205L367 770H486L594 616H507Z"  />
<glyph unicode="&#xEB;" horiz-adv-x="570" d="M187 242L185 231Q182 214 180 199T178 169Q178 145 184 126T207 93T251 72T321 64Q368 64 421 68T517 80L504 8Q473 0 423 -7T306 -14Q190 -14 140 35T90 173Q90 196 93 220T101 272L108 314Q120 379 144 426T203 504T282 549T377 564Q474 564 528 520T582 377Q582 344 578 312T565 242H187ZM486 316Q489 333 491 348T493 377Q493 398 488 417T470 452T433 476T373 486Q327 486 297 471T247 431T217 379T203 326L201 316H486ZM478 643L499 761H580L559 643H478ZM331 643H249L270 761H352L331 643Z"  />
<glyph unicode="&#xEC;" horiz-adv-x="284" d="M44 0L57 74L111 78L181 471L127 476L140 550H284L201 78L255 74L242 0H44ZM226 616L103 770H209L313 616H226Z"  />
<glyph unicode="&#xED;" horiz-adv-x="284" d="M44 0L57 74L111 78L181 471L127 476L140 550H284L201 78L255 74L242 0H44ZM269 616H179L337 770H446L269 616Z"  />
<glyph unicode="&#xEE;" horiz-adv-x="284" d="M44 0L57 74L111 78L181 471L127 476L140 550H284L201 78L255 74L242 0H44ZM357 616L271 721L148 616H55L217 770H336L444 616H357Z"  />
<glyph unicode="&#xEF;" horiz-adv-x="284" d="M44 0L57 74L111 78L181 471L127 476L140 550H284L201 78L255 74L242 0H44ZM329 643L350 761H431L410 643H329ZM182 643H100L121 761H203L182 643Z"  />
<glyph unicode="&#xF0;" horiz-adv-x="581" d="M473 718Q505 691 526 658T560 586T578 507T584 423Q584 371 578 320T564 221Q543 100 476 43T295 -14Q191 -14 143 35T94 169Q94 215 100 251L114 331Q135 453 203 508T383 564Q412 564 436 560T481 548Q472 588 453 619T399 673L248 582L221 630L336 700Q285 714 217 714Q214 714 208 714T194 713L206 785Q214 786 221 786T233 786Q291 786 337 777T421 751L509 804L537 757L473 718ZM490 315Q494 337 495 351T496 380Q496 404 491 423T471 456T434 477T375 485Q334 485 305 475T256 445T222 392T201 315L187 235Q184 218 183 203T181 169Q181 115 208 90T301 65Q343 65 372 75T422 105T455 158T476 235L490 315Z"  />
<glyph unicode="&#xF1;" horiz-adv-x="639" d="M451 0L512 348Q515 367 517 382T519 412Q519 450 502 468T442 486Q406 486 362 475T263 434L200 78L253 73L241 0H43L55 73L110 78L180 471L126 476L139 550H282L276 510Q327 539 373 551T462 564Q504 564 532 554T577 524T601 479T608 420Q608 400 606 379T599 334L554 78L607 73L595 0H451ZM639 736Q629 679 603 646T520 612Q492 612 470 622T426 653L390 686Q376 700 365 707T338 714Q317 714 308 698T293 653L287 619H222L228 653Q238 710 267 743T350 777Q379 777 398 768T440 739L476 705Q490 692 502 684T530 676Q552 676 561 691T575 736L581 770H645L639 736H639Z"  />
<glyph unicode="&#xF2;" horiz-adv-x="581" d="M564 221Q543 100 476 43T295 -14Q191 -14 143 35T94 169Q94 215 100 251L114 331Q135 453 203 508T383 564Q483 564 534 519T586 380Q586 370 585 359T583 336T580 316T578 301L564 221ZM490 315Q494 337 495 351T496 380Q496 404 491 423T471 456T434 477T375 485Q334 485 305 475T256 445T222 392T201 315L187 235Q184 218 183 203T181 169Q181 115 208 90T301 65Q343 65 372 75T422 105T455 158T476 235L490 315ZM373 616L250 770H356L460 616H373Z"  />
<glyph unicode="&#xF3;" horiz-adv-x="581" d="M564 221Q543 100 476 43T295 -14Q191 -14 143 35T94 169Q94 215 100 251L114 331Q135 453 203 508T383 564Q483 564 534 519T586 380Q586 370 585 359T583 336T580 316T578 301L564 221ZM490 315Q494 337 495 351T496 380Q496 404 491 423T471 456T434 477T375 485Q334 485 305 475T256 445T222 392T201 315L187 235Q184 218 183 203T181 169Q181 115 208 90T301 65Q343 65 372 75T422 105T455 158T476 235L490 315ZM423 616H333L491 770H600L423 616Z"  />
<glyph unicode="&#xF4;" horiz-adv-x="581" d="M564 221Q543 100 476 43T295 -14Q191 -14 143 35T94 169Q94 215 100 251L114 331Q135 453 203 508T383 564Q483 564 534 519T586 380Q586 370 585 359T583 336T580 316T578 301L564 221ZM490 315Q494 337 495 351T496 380Q496 404 491 423T471 456T434 477T375 485Q334 485 305 475T256 445T222 392T201 315L187 235Q184 218 183 203T181 169Q181 115 208 90T301 65Q343 65 372 75T422 105T455 158T476 235L490 315ZM506 616L420 721L297 616H204L366 770H485L593 616H506Z"  />
<glyph unicode="&#xF5;" horiz-adv-x="581" d="M564 221Q543 100 476 43T295 -14Q191 -14 143 35T94 169Q94 215 100 251L114 331Q135 453 203 508T383 564Q483 564 534 519T586 380Q586 370 585 359T583 336T580 316T578 301L564 221ZM490 315Q494 337 495 351T496 380Q496 404 491 423T471 456T434 477T375 485Q334 485 305 475T256 445T222 392T201 315L187 235Q184 218 183 203T181 169Q181 115 208 90T301 65Q343 65 372 75T422 105T455 158T476 235L490 315ZM617 736Q607 679 581 646T498 612Q470 612 448 622T404 653L368 686Q354 700 343 707T316 714Q295 714 286 698T271 653L265 619H200L206 653Q216 710 245 743T328 777Q357 777 376 768T418 739L454 705Q468 692 480 684T508 676Q530 676 539 691T553 736L559 770H623L617 736H617Z"  />
<glyph unicode="&#xF6;" horiz-adv-x="581" d="M564 221Q543 100 476 43T295 -14Q191 -14 143 35T94 169Q94 215 100 251L114 331Q135 453 203 508T383 564Q483 564 534 519T586 380Q586 370 585 359T583 336T580 316T578 301L564 221ZM490 315Q494 337 495 351T496 380Q496 404 491 423T471 456T434 477T375 485Q334 485 305 475T256 445T222 392T201 315L187 235Q184 218 183 203T181 169Q181 115 208 90T301 65Q343 65 372 75T422 105T455 158T476 235L490 315ZM478 643L499 761H580L559 643H478ZM331 643H249L270 761H352L331 643Z"  />
<glyph unicode="&#xF7;" horiz-adv-x="702" d="M380 117V251H472V117H380ZM664 354H187V428H664V354ZM380 528V661H472V528H380Z"  />
<glyph unicode="&#xF8;" horiz-adv-x="581" d="M564 221Q543 100 476 43T295 -14Q250 -14 216 -4T157 23L112 -25H19L113 76Q94 114 94 169Q94 215 100 251L114 331Q135 453 203 508T383 564Q479 564 531 521L581 574H674L571 464Q586 428 586 380Q586 370 585 359T583 336T580 316T578 301L564 221ZM181 169Q181 164 181 159T182 149L471 457Q457 471 434 478T375 485Q334 485 305 475T256 445T222 392T201 315L187 235Q184 218 183 203T181 169ZM490 315Q494 337 495 351T496 380V384L215 84Q243 65 301 65Q343 65 372 75T422 105T455 158T476 235L490 315Z"  />
<glyph unicode="&#xF9;" horiz-adv-x="639" d="M451 0L458 43Q404 15 356 1T263 -14Q223 -14 197 -3T155 27T133 72T126 128Q126 165 134 211L180 471L126 476L139 550H283L222 199Q218 176 216 159T214 127Q214 91 230 77T284 63Q321 63 366 75T470 112L534 471L480 476L493 550H637L554 78L607 73L595 0H451ZM403 616L280 770H386L490 616H403Z"  />
<glyph unicode="&#xFA;" horiz-adv-x="639" d="M451 0L458 43Q404 15 356 1T263 -14Q223 -14 197 -3T155 27T133 72T126 128Q126 165 134 211L180 471L126 476L139 550H283L222 199Q218 176 216 159T214 127Q214 91 230 77T284 63Q321 63 366 75T470 112L534 471L480 476L493 550H637L554 78L607 73L595 0H451ZM454 616H364L522 770H631L454 616Z"  />
<glyph unicode="&#xFB;" horiz-adv-x="639" d="M451 0L458 43Q404 15 356 1T263 -14Q223 -14 197 -3T155 27T133 72T126 128Q126 165 134 211L180 471L126 476L139 550H283L222 199Q218 176 216 159T214 127Q214 91 230 77T284 63Q321 63 366 75T470 112L534 471L480 476L493 550H637L554 78L607 73L595 0H451ZM532 616L446 721L323 616H230L392 770H511L619 616H532Z"  />
<glyph unicode="&#xFC;" horiz-adv-x="639" d="M451 0L458 43Q404 15 356 1T263 -14Q223 -14 197 -3T155 27T133 72T126 128Q126 165 134 211L180 471L126 476L139 550H283L222 199Q218 176 216 159T214 127Q214 91 230 77T284 63Q321 63 366 75T470 112L534 471L480 476L493 550H637L554 78L607 73L595 0H451ZM502 643L523 761H604L583 643H502ZM355 643H273L294 761H376L355 643Z"  />
<glyph unicode="&#xFD;" horiz-adv-x="657" d="M630 471L358 -48Q337 -88 317 -120T272 -174T216 -209T142 -222Q107 -222 79 -219T37 -212L49 -143Q81 -145 103 -146T153 -147Q173 -147 188 -142T216 -123T242 -90T271 -39L292 0L193 471L131 476L144 550H328L317 483L285 480L329 241Q336 204 339 172T347 95H349Q368 139 382 171T417 242L537 480L505 483L516 550H705L692 476L630 471ZM468 616H378L536 770H645L468 616Z"  />
<glyph unicode="&#xFE;" horiz-adv-x="610" d="M518 308Q522 325 524 346T526 384Q526 441 501 463T425 485Q393 485 360 477T275 444L210 77Q242 70 272 66T330 62Q366 62 394 69T443 98T481 156T508 254L518 308ZM288 517Q330 543 371 553T453 564Q532 564 573 524T615 393Q615 352 604 294L594 240Q580 160 556 111T496 34T416 -4T317 -14Q289 -14 255 -10T197 2L173 -131L227 -136L213 -210H16L30 -136L84 -131L230 695L177 700L190 774H334L288 517Z"  />
<glyph unicode="&#xFF;" horiz-adv-x="657" d="M630 471L358 -48Q337 -88 317 -120T272 -174T216 -209T142 -222Q107 -222 79 -219T37 -212L49 -143Q81 -145 103 -146T153 -147Q173 -147 188 -142T216 -123T242 -90T271 -39L292 0L193 471L131 476L144 550H328L317 483L285 480L329 241Q336 204 339 172T347 95H349Q368 139 382 171T417 242L537 480L505 483L516 550H705L692 476L630 471ZM514 643L535 761H616L595 643H514ZM367 643H285L306 761H388L367 643Z"  />
<glyph unicode="&#x131;" horiz-adv-x="284" d="M44 0L57 74L111 78L181 471L127 476L140 550H284L201 78L255 74L242 0H44Z"  />
<glyph unicode="&#x152;" horiz-adv-x="995" d="M494 0Q475 -3 459 -5T427 -10T394 -13T353 -14Q292 -14 247 3T173 53T129 132T114 236Q114 258 115 281T122 330L140 436Q167 596 255 675T488 755Q531 755 561 752T625 743H1047L1020 592H948L950 661H684L643 427H970L955 344H628L582 81H848L870 152H942L916 0H494ZM489 78Q498 132 513 215Q526 286 545 396T592 662Q573 665 558 667T530 670T503 672T474 673Q429 673 390 660T320 617T266 540T231 424L213 318Q209 295 207 275T205 237Q205 146 249 107T367 68Q382 68 395 68T422 70T452 73T489 78Z"  />
<glyph unicode="&#x153;" horiz-adv-x="950" d="M567 242L565 231Q562 214 560 199T558 169Q558 145 564 126T587 93T631 72T701 64Q748 64 801 68T897 80L884 8Q853 0 803 -7T686 -14Q609 -14 564 7T496 69Q429 -14 295 -14Q191 -14 143 35T94 169Q94 215 100 251L114 331Q135 453 203 508T383 564Q519 564 561 477Q596 522 645 543T757 564Q854 564 908 520T962 377Q962 344 958 312T945 242H567ZM490 315Q494 337 495 351T496 380Q496 404 491 423T471 456T434 477T375 485Q334 485 305 475T256 445T222 392T201 315L187 235Q184 218 183 203T181 169Q181 115 208 90T301 65Q343 65 372 75T422 105T455 158T476 235L490 315ZM866 316Q869 333 871 348T873 377Q873 398 868 417T850 452T813 476T753 486Q707 486 677 471T627 431T597 379T583 326L581 316H866Z"  />
<glyph unicode="&#x160;" horiz-adv-x="584" d="M169 155L164 69Q181 68 194 68T219 67T247 66T284 66Q326 66 360 74T420 99T458 144T472 212Q472 247 454 271T390 317L272 374Q216 400 184 443T151 553Q151 610 173 648T232 710T318 744T421 755Q458 755 492 753T553 748T601 742T632 735L607 592H536L538 671Q509 673 478 674T420 675Q384 675 352 670T297 652T260 615T246 554Q246 519 264 496T327 451L445 395Q475 381 498 365T537 328T561 279T570 213Q570 157 549 115T489 44T397 1T280 -14Q247 -14 214 -12T153 -6T104 0T72 7L98 155H169ZM485 800H366L258 954H344L430 848L553 954H647L485 800Z"  />
<glyph unicode="&#x161;" horiz-adv-x="491" d="M80 136H150L147 67Q173 65 196 64T244 63Q272 63 296 66T338 79T366 106T377 150Q377 165 373 175T359 195T330 215T282 239L246 256Q214 271 191 286T152 320T129 359T121 407Q121 455 139 485T188 533T258 557T338 564Q369 564 399 562T453 557T494 551T517 544L497 427H428V483Q405 485 379 486T337 487Q316 487 294 485T254 475T224 452T212 408Q212 385 229 369T293 333L331 316Q368 299 394 284T437 250T461 210T469 157Q469 74 407 30T233 -14Q204 -14 176 -12T123 -6T82 2T58 8L80 136ZM414 616H295L187 770H273L359 664L482 770H576L414 616Z"  />
<glyph unicode="&#x178;" horiz-adv-x="642" d="M688 665L417 294L380 81L433 76L420 0H221L234 76L289 81L326 294L187 665L142 669L156 743H350L338 675L282 670L346 498Q356 472 366 441T383 380H389Q404 409 427 440T469 498L594 670L536 675L548 743H748L734 669L688 665ZM549 818L570 936H651L630 818H549ZM402 818H320L341 936H423L402 818Z"  />
<glyph unicode="&#x17D;" horiz-adv-x="623" d="M54 0L71 102L566 661H266L244 592H174L201 743H686L668 642L173 81H501L525 156H596L569 0H54ZM526 800H407L299 954H385L471 848L594 954H688L526 800Z"  />
<glyph unicode="&#x17E;" horiz-adv-x="502" d="M49 0L66 101L438 475H225L207 427H137L158 550H547L531 457L153 74H386L406 136H475L452 0H49ZM428 616H309L201 770H287L373 664L496 770H590L428 616Z"  />
<glyph unicode="&#x192;" horiz-adv-x="637" d="M665 680Q643 682 626 683T592 685Q572 685 557 682T529 670T508 642T489 593L442 429H616L593 354H419L323 17Q310 -30 291 -60T249 -107T198 -131T140 -138Q109 -138 85 -135T41 -126L58 -63Q79 -65 98 -66T137 -68Q153 -68 167 -66T194 -54T216 -26T236 23L330 354H173L195 429H353L400 599Q413 645 431 675T473 723T526 748T589 755Q615 755 639 752T683 743L665 680Z"  />
<glyph unicode="&#x2C6;" horiz-adv-x="457" d="M444 616L358 721L235 616H142L304 770H423L531 616H444Z"  />
<glyph unicode="&#x2DC;" horiz-adv-x="457" d="M559 736Q549 679 523 646T440 612Q412 612 390 622T346 653L310 686Q296 700 285 707T258 714Q237 714 228 698T213 653L207 619H142L148 653Q158 710 187 743T270 777Q299 777 318 768T360 739L396 705Q410 692 422 684T450 676Q472 676 481 691T495 736L501 770H565L559 736H559Z"  />
<glyph unicode="&#x2013;" horiz-adv-x="504" d="M118 255L132 331H488L474 255H118Z"  />
<glyph unicode="&#x2014;" horiz-adv-x="643" d="M118 255L132 331H627L613 255H118Z"  />
<glyph unicode="&#x2018;" horiz-adv-x="183" d="M212 545H116L231 774H299L212 545Z"  />
<glyph unicode="&#x2019;" horiz-adv-x="183" d="M185 545H116L204 774H299L185 545Z"  />
<glyph unicode="&#x201A;" horiz-adv-x="183" d="M72 -94H3L91 134H186L72 -94Z"  />
<glyph unicode="&#x201C;" horiz-adv-x="366" d="M394 545H299L413 774H482L394 545ZM211 545H116L230 774H299L211 545Z"  />
<glyph unicode="&#x201D;" horiz-adv-x="366" d="M368 545H299L387 774H482L368 545ZM185 545H116L204 774H299L185 545Z"  />
<glyph unicode="&#x201E;" horiz-adv-x="366" d="M255 -94H186L274 134H369L255 -94ZM186 134L72 -94H3L91 134H186Z"  />
<glyph unicode="&#x2020;" horiz-adv-x="510" d="M377 481L270 -130H181L288 481H161L175 560H302L340 774H429L391 560H531L517 481H377Z"  />
<glyph unicode="&#x2021;" horiz-adv-x="510" d="M340 268L270 -130H181L251 268H124L138 346H265L288 477H161L175 556H302L339 770H428L391 556H531L517 477H377L354 346H494L480 268H340Z"  />
<glyph unicode="&#x2022;" horiz-adv-x="533" d="M519 369Q519 332 505 300T467 243T410 205T340 191Q303 191 271 205T214 243T176 299T162 369Q162 406 176 438T214 495T270 534T340 548Q377 548 409 534T466 496T505 439T519 369Z"  />
<glyph unicode="&#x2026;" horiz-adv-x="822" d="M648 0L672 138H762L738 0H648ZM456 0H366L390 138H480L456 0ZM83 0L107 138H198L174 0H83Z"  />
<glyph unicode="&#x2030;" horiz-adv-x="1482" d="M339 0H249L854 743H944L339 0ZM494 478Q477 386 429 338T286 290Q245 290 216 301T169 332T143 381T135 442Q135 474 141 509L151 566Q166 654 215 704T360 755Q403 755 432 744T478 714T503 667T511 607Q511 590 509 572T504 535L494 478ZM425 551Q431 584 431 607Q431 653 411 671T352 689Q302 689 273 658T231 551L221 494Q215 459 215 436Q215 391 234 374T293 356Q342 356 371 386T415 494L425 551ZM1044 177Q1027 85 979 37T836 -11Q795 -11 766 0T719 31T693 80T685 141Q685 173 691 208L701 265Q716 353 765 403T910 454Q953 454 982 443T1028 413T1053 366T1061 306Q1061 289 1059 271T1054 234L1044 177ZM975 250Q981 283 981 306Q981 352 961 370T902 388Q852 388 823 357T781 250L771 193Q765 158 765 135Q765 90 784 73T843 55Q892 55 921 85T965 193L975 250ZM1464 177Q1447 85 1399 37T1256 -11Q1215 -11 1186 0T1139 31T1113 80T1105 141Q1105 173 1111 208L1121 265Q1136 353 1185 403T1330 454Q1373 454 1402 443T1448 413T1473 366T1481 306Q1481 289 1479 271T1474 234L1464 177ZM1395 250Q1401 283 1401 306Q1401 352 1381 370T1322 388Q1272 388 1243 357T1201 250L1191 193Q1185 158 1185 135Q1185 90 1204 73T1263 55Q1312 55 1341 85T1385 193L1395 250Z"  />
<glyph unicode="&#x2039;" horiz-adv-x="382" d="M232 81L105 289L305 495H411L216 289L338 81H232Z"  />
<glyph unicode="&#x203A;" horiz-adv-x="382" d="M177 81H71L266 289L144 495H250L377 289L177 81Z"  />
<glyph unicode="&#x20AC;" horiz-adv-x="666" d="M596 3Q584 0 564 -3T520 -8T470 -12T419 -14Q372 -14 328 -3T251 36T197 113T177 236V249H105L118 320H182Q184 334 186 349T190 379L199 422H136L148 493H218Q244 579 281 630T361 710T451 746T546 755Q603 755 653 749T727 738L702 601H630L632 671Q612 672 590 673T546 674Q510 674 477 669T414 645T359 590T314 493H643L612 422H293Q290 411 288 400T284 377Q282 363 280 349T276 320H562L530 249H273V236Q273 180 286 147T321 96T374 73T439 68Q453 68 473 69T517 71T564 75T609 79L596 3H596Z"  />
<glyph unicode="&#x2122;" horiz-adv-x="887" d="M802 407L832 575Q838 613 849 653H848Q837 638 827 622T805 592L728 495H669L628 592Q623 604 617 621T606 653H605Q603 634 600 615T594 575L564 407L597 404L587 349H448L458 404L491 407L540 685L508 688L518 743H637L693 604Q698 592 701 582T709 558H710Q719 572 725 582T742 604L849 743H969L959 688L925 685L876 407L909 404L899 349H759L769 404L802 407ZM422 647V684H358L309 407L342 404L332 349H191L201 404L234 407L283 684H218L206 647H157L174 743H488L471 647H422Z"  />

</font>
</defs>
</svg>
